<svg xmlns="http://www.w3.org/2000/svg" viewBox="0 0 449.51 103.36"><defs><style>.cls-1{fill:#333;}.cls-2,.cls-3{fill:#3454f5;}.cls-3{fill-rule:evenodd;}</style></defs><title>Asset 1</title><g id="Layer_2" data-name="Layer 2"><g id="Layer_1-2" data-name="Layer 1"><path class="cls-1" d="M31.6,29l4.24-8.4a29.43,29.43,0,0,0-8-3.56A32.34,32.34,0,0,0,19,15.76q-7.36,0-12.16,3.52a11.59,11.59,0,0,0-4.8,9.92A10.48,10.48,0,0,0,4.16,36a13,13,0,0,0,5,3.88,60.84,60.84,0,0,0,7.32,2.56,31.52,31.52,0,0,1,6,2.24,3.19,3.19,0,0,1,1.88,2.88A2.72,2.72,0,0,1,22.92,50a8,8,0,0,1-4,.84,23.35,23.35,0,0,1-7.64-1.4,25.18,25.18,0,0,1-7.32-4L0,53.84a26.18,26.18,0,0,0,8.48,4.44,33.16,33.16,0,0,0,10.16,1.56q7.68,0,12.6-3.56a11.59,11.59,0,0,0,4.92-10A10.36,10.36,0,0,0,34,39.48a14,14,0,0,0-5.12-3.92,63.47,63.47,0,0,0-7.52-2.68,35.21,35.21,0,0,1-6-2.16A3,3,0,0,1,13.52,28a2.61,2.61,0,0,1,1.36-2.4,7.07,7.07,0,0,1,3.6-.8,20.84,20.84,0,0,1,6.16,1.08,36,36,0,0,1,7,3.08Z"/><path class="cls-1" d="M72,15.84Q61.6,16,57.12,23.92V0H44.8V59.36H57.12V38.16a11.57,11.57,0,0,1,2.68-7.88A9.34,9.34,0,0,1,67,27.12a8.22,8.22,0,0,1,6.2,2.36,8.88,8.88,0,0,1,2.28,6.44V59.36H87.84v-27q0-7.52-4.28-12T72,15.84Z"/><path class="cls-1" d="M117.84,15.92a25.94,25.94,0,0,0-12.12,2.72,19.63,19.63,0,0,0-8.12,7.68,22.53,22.53,0,0,0-2.88,11.52A22.58,22.58,0,0,0,97.6,49.32a19.81,19.81,0,0,0,8.12,7.76,27.82,27.82,0,0,0,24.16,0A19.82,19.82,0,0,0,138,49.32a22.58,22.58,0,0,0,2.88-11.48A22.53,22.53,0,0,0,138,26.32a19.64,19.64,0,0,0-8.12-7.68,25.77,25.77,0,0,0-12-2.72Zm0,10.24a10,10,0,0,1,7.72,3.28,12.19,12.19,0,0,1,3,8.56,12.19,12.19,0,0,1-3,8.56,10.82,10.82,0,0,1-15.52,0A12.19,12.19,0,0,1,107,38a12.19,12.19,0,0,1,3-8.56,10.08,10.08,0,0,1,7.8-3.28Z"/><path class="cls-1" d="M175.36,15.92a17.37,17.37,0,0,0-7.8,1.72,15.37,15.37,0,0,0-5.8,5V16.32H149.44V74.88h12.32V53.12a16,16,0,0,0,5.88,5,17.72,17.72,0,0,0,8,1.72,20,20,0,0,0,10.52-2.72,18.33,18.33,0,0,0,7-7.64,25,25,0,0,0,2.48-11.4,25.61,25.61,0,0,0-2.52-11.6,18.53,18.53,0,0,0-7.12-7.8,20.2,20.2,0,0,0-10.6-2.76ZM172.48,49.6a10,10,0,0,1-7.72-3.28,12.3,12.3,0,0,1-3-8.64,12.22,12.22,0,0,1,3-8.52,9.93,9.93,0,0,1,7.72-3.32,9.81,9.81,0,0,1,7.68,3.32,12.33,12.33,0,0,1,3,8.52,12.44,12.44,0,0,1-3,8.6,9.81,9.81,0,0,1-7.68,3.32Z"/><path class="cls-1" d="M230.08,15.92a17.37,17.37,0,0,0-7.8,1.72,15.37,15.37,0,0,0-5.8,5V16.32H204.16V74.88h12.32V53.12a16,16,0,0,0,5.88,5,17.72,17.72,0,0,0,8,1.72,20,20,0,0,0,10.52-2.72,18.33,18.33,0,0,0,7-7.64,25,25,0,0,0,2.48-11.4,25.61,25.61,0,0,0-2.52-11.6,18.53,18.53,0,0,0-7.12-7.8,20.2,20.2,0,0,0-10.6-2.76ZM227.2,49.6a10,10,0,0,1-7.72-3.28,12.3,12.3,0,0,1-3-8.64,12.22,12.22,0,0,1,3-8.52,9.93,9.93,0,0,1,7.72-3.32,9.81,9.81,0,0,1,7.68,3.32,12.33,12.33,0,0,1,3,8.52,12.44,12.44,0,0,1-3,8.6,9.81,9.81,0,0,1-7.68,3.32Z"/><path class="cls-2" d="M261.92,47.36a6,6,0,0,0-4.4,1.76,6.17,6.17,0,0,0-1.76,4.56,6.34,6.34,0,0,0,1.76,4.56,6.28,6.28,0,0,0,8.84,0,6.39,6.39,0,0,0,1.72-4.6,6.25,6.25,0,0,0-1.72-4.56,5.94,5.94,0,0,0-4.44-1.76Z"/><path class="cls-1" d="M303.6,15.92a17.37,17.37,0,0,0-7.8,1.72,15.37,15.37,0,0,0-5.8,5V0H277.68V59.36H290V53.12a16,16,0,0,0,5.88,5,17.72,17.72,0,0,0,8,1.72,20,20,0,0,0,10.52-2.72,18.33,18.33,0,0,0,7-7.64,25,25,0,0,0,2.48-11.4,25.61,25.61,0,0,0-2.52-11.6,18.53,18.53,0,0,0-7.12-7.8,20.2,20.2,0,0,0-10.6-2.76ZM300.72,49.6A10,10,0,0,1,293,46.32a12.3,12.3,0,0,1-3-8.64,12.22,12.22,0,0,1,3-8.52,9.93,9.93,0,0,1,7.72-3.32,9.81,9.81,0,0,1,7.68,3.32,12.33,12.33,0,0,1,3,8.52,12.44,12.44,0,0,1-3,8.6,9.81,9.81,0,0,1-7.68,3.32Z"/><path class="cls-1" d="M332.39,59.36h12.32V0H332.39Z"/><path class="cls-1" d="M385.67,16.32V37.6a11.76,11.76,0,0,1-2.56,7.84,8.84,8.84,0,0,1-7,3.12,7.69,7.69,0,0,1-5.92-2.32,9,9,0,0,1-2.16-6.4V16.32H355.75v27q0,7.6,4.2,12t11.32,4.44q10,0,14.4-8.08v7.6h12.24v-43Z"/><path class="cls-1" d="M428.31,15.92a23.59,23.59,0,0,0-11.52,2.76A19.6,19.6,0,0,0,409,26.44,23.25,23.25,0,0,0,406.15,38a23.13,23.13,0,0,0,2.76,11.44,19.07,19.07,0,0,0,7.84,7.68,24.79,24.79,0,0,0,11.88,2.72,26.76,26.76,0,0,0,10.44-2,21.78,21.78,0,0,0,8-5.64l-6.48-6.56a15.43,15.43,0,0,1-5,3.4,15.11,15.11,0,0,1-5.84,1.16,10.94,10.94,0,0,1-11.12-8.64h30.88q.08-1,.08-3,0-10.72-5.4-16.72t-15.8-6Zm-10,18.4a11.7,11.7,0,0,1,3.4-6.84A9.37,9.37,0,0,1,428.39,25a9.2,9.2,0,0,1,6.8,2.56,9.75,9.75,0,0,1,2.72,6.8Z"/><path class="cls-3" d="M182.56,77.36s-6.9,13.81-37,16c-30.1-2.19-37-16-37-16l-5,4c18.27,22.31,42,22,42,22s23.73.31,42-22Z"/></g></g></svg>